<svg width="18" height="14" viewBox="0 0 18 14" fill="none" xmlns="http://www.w3.org/2000/svg">
<path d="M0 1.16667C0 0.857247 0.118527 0.560501 0.329505 0.341709C0.540484 0.122917 0.826631 0 1.125 0H2.25C2.54837 0 2.83452 0.122917 3.0455 0.341709C3.25647 0.560501 3.375 0.857247 3.375 1.16667C3.375 1.47609 3.25647 1.77283 3.0455 1.99162C2.83452 2.21042 2.54837 2.33333 2.25 2.33333H1.125C0.826631 2.33333 0.540484 2.21042 0.329505 1.99162C0.118527 1.77283 0 1.47609 0 1.16667ZM5.625 1.16667C5.625 0.857247 5.74353 0.560501 5.9545 0.341709C6.16548 0.122917 6.45163 0 6.75 0H16.875C17.1734 0 17.4595 0.122917 17.6705 0.341709C17.8815 0.560501 18 0.857247 18 1.16667C18 1.47609 17.8815 1.77283 17.6705 1.99162C17.4595 2.21042 17.1734 2.33333 16.875 2.33333H6.75C6.45163 2.33333 6.16548 2.21042 5.9545 1.99162C5.74353 1.77283 5.625 1.47609 5.625 1.16667ZM0 7C0 6.69058 0.118527 6.39383 0.329505 6.17504C0.540484 5.95625 0.826631 5.83333 1.125 5.83333H2.25C2.54837 5.83333 2.83452 5.95625 3.0455 6.17504C3.25647 6.39383 3.375 6.69058 3.375 7C3.375 7.30942 3.25647 7.60616 3.0455 7.82496C2.83452 8.04375 2.54837 8.16667 2.25 8.16667H1.125C0.826631 8.16667 0.540484 8.04375 0.329505 7.82496C0.118527 7.60616 0 7.30942 0 7ZM5.625 7C5.625 6.69058 5.74353 6.39383 5.9545 6.17504C6.16548 5.95625 6.45163 5.83333 6.75 5.83333H16.875C17.1734 5.83333 17.4595 5.95625 17.6705 6.17504C17.8815 6.39383 18 6.69058 18 7C18 7.30942 17.8815 7.60616 17.6705 7.82496C17.4595 8.04375 17.1734 8.16667 16.875 8.16667H6.75C6.45163 8.16667 6.16548 8.04375 5.9545 7.82496C5.74353 7.60616 5.625 7.30942 5.625 7ZM0 12.8333C0 12.5239 0.118527 12.2272 0.329505 12.0084C0.540484 11.7896 0.826631 11.6667 1.125 11.6667H2.25C2.54837 11.6667 2.83452 11.7896 3.0455 12.0084C3.25647 12.2272 3.375 12.5239 3.375 12.8333C3.375 13.1428 3.25647 13.4395 3.0455 13.6583C2.83452 13.8771 2.54837 14 2.25 14H1.125C0.826631 14 0.540484 13.8771 0.329505 13.6583C0.118527 13.4395 0 13.1428 0 12.8333ZM5.625 12.8333C5.625 12.5239 5.74353 12.2272 5.9545 12.0084C6.16548 11.7896 6.45163 11.6667 6.75 11.6667H16.875C17.1734 11.6667 17.4595 11.7896 17.6705 12.0084C17.8815 12.2272 18 12.5239 18 12.8333C18 13.1428 17.8815 13.4395 17.6705 13.6583C17.4595 13.8771 17.1734 14 16.875 14H6.75C6.45163 14 6.16548 13.8771 5.9545 13.6583C5.74353 13.4395 5.625 13.1428 5.625 12.8333Z" fill="white"/>
</svg>
