<svg width="20" height="20" viewBox="0 0 20 20" fill="none" xmlns="http://www.w3.org/2000/svg">
<path d="M2.47602 9.904H1.31543C1.31559 8.121 1.87068 6.38224 2.90369 4.92897C3.9367 3.4757 5.39641 2.37997 7.0803 1.79379C8.7642 1.20762 10.5888 1.16007 12.3009 1.65773C14.0131 2.1554 15.5279 3.17361 16.6352 4.5711V3.28865H17.7958V7.35071H13.7337V6.19012H16.3361C15.6836 5.06155 14.7459 4.12436 13.6169 3.47252C12.4879 2.82069 11.2074 2.47711 9.90378 2.47624C5.80807 2.47624 2.47602 5.80829 2.47602 9.904ZM17.3315 9.904C17.3315 13.9997 13.9995 17.3318 9.90378 17.3318C8.60015 17.3309 7.31965 16.9873 6.19068 16.3355C5.06171 15.6836 4.12394 14.7465 3.47142 13.6179H6.07384V12.4573H2.01178V16.5194H3.17237V15.2369C4.27968 16.6344 5.79448 17.6526 7.50663 18.1503C9.21877 18.6479 11.0434 18.6004 12.7273 18.0142C14.4112 17.428 15.8709 16.3323 16.9039 14.879C17.9369 13.4258 18.492 11.687 18.4921 9.904H17.3315Z" fill="#FDC52C"/>
</svg>
